<?xml version="1.0" encoding="UTF-8" standalone="no"?>
<!-- Created with Inkscape (http://www.inkscape.org/) -->
<svg
  xmlns:inkscape="http://www.inkscape.org/namespaces/inkscape"
  xmlns:rdf="http://www.w3.org/1999/02/22-rdf-syntax-ns#"
  xmlns="http://www.w3.org/2000/svg"
  xmlns:cc="http://creativecommons.org/ns#"
  xmlns:dc="http://purl.org/dc/elements/1.1/"
  xmlns:sodipodi="http://sodipodi.sourceforge.net/DTD/sodipodi-0.dtd"
  xmlns:svg="http://www.w3.org/2000/svg"
  xmlns:ns1="http://sozi.baierouge.fr"
  xmlns:xlink="http://www.w3.org/1999/xlink"
  id="svg2"
  sodipodi:docname="sport2.svg"
  viewBox="0 0 1052.4 744.09"
  version="1.1"
  inkscape:version="0.48.0 r9654"
>
  <sodipodi:namedview
    id="base"
    bordercolor="#666666"
    inkscape:pageshadow="2"
    inkscape:window-y="-4"
    pagecolor="#ffffff"
    inkscape:window-height="1003"
    inkscape:window-maximized="1"
    inkscape:zoom="0.80838068"
    inkscape:window-x="-4"
    showgrid="false"
    borderopacity="1.0"
    inkscape:current-layer="layer1"
    inkscape:cx="529.61558"
    inkscape:cy="499.03243"
    inkscape:window-width="1680"
    inkscape:pageopacity="0.0"
    inkscape:document-units="px"
  />
  <g
    id="layer1"
    inkscape:label="Layer 1"
    inkscape:groupmode="layer"
    transform="translate(0 -308.27)"
  >
    <path
      id="2"
      d="m169.5 755.45c-27.915 5.0746-119.27 12.687-121.81-27.911v-12.687c-2.5377-32.985 7.6132-35.523 32.99-48.209 7.6132-5.0747 15.226-7.612 22.84-12.687 17.764-7.612 27.915-22.836 50.755-32.985s50.755-7.612 76.132-10.149c40.604-5.0746 81.207-7.612 121.81-15.224 27.915-15.224 58.368-30.448 86.283-48.209 17.764-10.149 43.141-27.911 63.443-27.911 5.0754-2.5373 5.0754 0 7.6132 10.149-2.5377 2.5373-7.6132 5.0746-12.689 7.612-12.689 7.612-25.377 17.761-38.066 25.373-22.84 12.687-45.679 25.373-63.443 38.06h2.5377c83.745 0 180.18-2.5373 261.39-2.5373 17.764-2.5373 32.99-2.5373 48.217-7.612 17.764-2.5373 35.528-7.612 50.755-17.761 25.377-15.224 63.443-2.5373 91.358-2.5373 55.83 12.687 104.05 22.836 144.65 65.97 15.226 17.761 17.764 17.761 15.226 43.135v27.911c0 7.612-2.5378 12.687-2.5378 17.761-5.0754 15.224-10.151 12.687-27.915 15.224-30.453 7.612-60.905 10.149-93.896 12.687h-2.5377v-30.448c0-48.209-38.066-88.806-86.283-88.806s-86.283 40.597-86.283 91.344c0 10.149-2.5377 20.299 0 30.448-116.74 2.5373-233.47 5.0746-350.21 10.149h-17.764c-5.0754 0-7.6132-2.5373-7.6132-2.5373 2.5377-12.687 0-25.373 0-40.597 0-76.12-83.745-106.57-134.5-65.97l-7.6132 7.612c0 2.5373-2.5377 2.5373-2.5377 5.0746-12.689 15.224-20.302 32.985-20.302 55.821v32.985-2.5373z"
      style="fill-rule:evenodd;fill:#d40000"
      inkscape:connector-curvature="0"
    />
    <path
      id="3"
      d="m334.45 737.69c116.74-2.5373 236.01-2.5373 352.74-2.5373-20.302-22.836-299.45 0-352.74 2.5373z"
      style="fill-rule:evenodd;fill:#fab6ad"
      inkscape:connector-curvature="0"
    />
    <path
      id="4"
      d="m291.31 648.89c149.73-32.985 375.58-12.687 433.95 25.373 15.226-25.373 40.604-40.597 71.056-40.597h5.0755c-131.96-20.299-253.77-17.761-390.81-15.224-60.905 5.0746-119.27 0-175.1 22.836 5.0754-2.5373 10.151-2.5373 17.764-2.5373 12.689 0 25.377 2.5373 38.066 10.149z"
      style="fill-rule:evenodd;fill:#f38574"
      inkscape:connector-curvature="0"
    />
    <path
      id="5"
      d="m357.29 593.06c27.915-15.224 55.83-30.448 81.207-45.672 15.226-7.612 35.528-22.836 53.292-27.911l5.0755 5.0746-114.2 73.582z"
      style="stroke-linejoin:round;fill-rule:evenodd;stroke:#25221e;stroke-linecap:round;stroke-width:2;fill:#ffffff"
      inkscape:connector-curvature="0"
    />
    <path
      id="6"
      d="m397.89 600.68c78.67 0 167.49-2.5373 246.16-2.5373 63.443 27.911-32.99 104.03-91.358 162.39-65.981 0-129.42 2.5373-192.87 5.0747-2.5377 0-2.5377 0 0 0 2.5377-17.761 7.6132-32.985 7.6132-53.284v-45.672c0-17.761-2.5377-30.448 7.6132-43.135 2.5377-5.0746 7.6132-10.149 12.689-12.687 2.5377-5.0746 7.6132-7.612 10.151-10.149z"
      style="stroke-linejoin:round;stroke:#25221e;stroke-linecap:round;stroke-width:2;fill:none"
      inkscape:connector-curvature="0"
    />
    <path
      id="7"
      d="m633.9 626.05c17.764-2.5373 22.84 5.0746 15.226 10.149-5.0754 7.612-7.6132 7.612-25.377 7.612-15.226 0-22.84 0-22.84-5.0746 0-7.612 17.764-10.149 32.99-12.687z"
      style="stroke-linejoin:round;fill-rule:evenodd;stroke:#25221e;stroke-linecap:round;stroke-width:2;fill:#25221e"
      inkscape:connector-curvature="0"
    />
    <path
      id="8"
      d="m971.42 615.9c7.6132 5.0746 15.226 12.687 22.84 20.299 15.226 17.761 17.764 17.761 15.226 43.135v27.911c0 7.612-2.5378 12.687-2.5378 17.761-5.0754 15.224-10.151 12.687-27.915 15.224-30.453 7.612-60.905 10.149-93.896 12.687h-2.5377v-30.448c0-35.523-22.84-68.508-53.292-81.194 35.528-5.0746 106.58-20.299 142.11-25.373z"
      style="stroke-linejoin:round;stroke:#25221e;stroke-linecap:round;stroke-width:2;fill:none"
      inkscape:connector-curvature="0"
    />
    <path
      id="9"
      d="m1009.5 709.78-101.51 7.612 101.51-2.5373v-5.0747z"
      style="stroke-linejoin:round;fill-rule:evenodd;stroke:#25221e;stroke-linecap:round;stroke-width:2;fill:#25221e"
      inkscape:connector-curvature="0"
    />
    <path
      id="12"
      d="m707.5 590.53c17.764-2.5373 35.528-7.612 50.755-17.761 22.84-15.224 60.905-2.5373 88.82-2.5373-35.528 15.224-88.82 20.299-139.57 20.299z"
      style="stroke-linejoin:round;fill-rule:evenodd;stroke:#25221e;stroke-linecap:round;stroke-width:2;fill:#25221e"
      inkscape:connector-curvature="0"
    />
    <path
      id="13"
      d="m636.44 542.32c7.6132 0 12.689 7.612 12.689 15.224l2.5378 40.597h-27.915c-2.5377-5.0746-2.5377-7.612-2.5377-10.149l2.5377-32.985c0-7.612 7.6132-12.687 12.689-12.687z"
      style="stroke-linejoin:round;fill-rule:evenodd;stroke:#25221e;stroke-linecap:round;stroke-width:2;fill:#25221e"
      inkscape:connector-curvature="0"
    />
    <path
      id="14"
      d="m468.95 572.77c2.5377 7.612 2.5377 15.224 0 22.836-2.5377 2.5373-20.302 2.5373-25.377 0 0 0-2.5377 2.5373-5.0754 2.5373-5.0754 0-10.151-2.5373-10.151-5.0746 0-5.0746 2.5377-7.612 10.151-10.149 2.5377-7.612 22.84-15.224 30.453-10.149z"
      style="stroke-linejoin:round;fill-rule:evenodd;stroke:#25221e;stroke-linecap:round;stroke-width:2;fill:#25221e"
      inkscape:connector-curvature="0"
    />
    <path
      id="15"
      d="m446.11 567.69c2.5377 2.5373 2.5377 2.5373 5.0755 5.0746-7.6132 2.5373-12.689 7.612-12.689 10.149-7.6132 2.5373-10.151 5.0746-10.151 10.149 0 2.5373 5.0755 5.0746 10.151 5.0746 2.5377 0 5.0754-2.5373 5.0754-2.5373 2.5377 0 12.689 2.5373 20.302 2.5373v2.5373h-65.981-2.5377c15.226-10.149 32.99-22.836 50.755-32.985zm-50.755 35.523zm2.5377-2.5373z"
      style="stroke-linejoin:round;stroke:#25221e;stroke-linecap:round;stroke-width:2;fill:none"
      inkscape:connector-curvature="0"
    />
    <path
      id="16"
      d="m103.52 653.96c17.764-7.612 27.915-22.836 50.755-32.985s50.755-7.612 76.132-10.149c40.604-5.0746 81.207-7.612 121.81-15.224 27.915-15.224 58.368-30.448 86.283-48.209 17.764-10.149 43.141-27.911 63.443-27.911 5.0754-2.5373 5.0754 0 7.6132 10.149-2.5377 2.5373-7.6132 5.0746-12.689 7.612-12.689 7.612-25.377 17.761-38.066 25.373-22.84 12.687-45.679 25.373-63.443 38.06h2.5377c-2.5377 2.5373-7.6132 5.0746-10.151 10.149-5.0754 2.5373-10.151 7.612-12.689 12.687-10.151 12.687-7.6132 25.373-7.6132 43.135v45.672c0 20.299-5.0754 35.523-7.6132 53.284h-17.764c-5.0754 0-7.6132-2.5373-7.6132-2.5373v-20.299-10.149-2.5373-2.5373-2.5373-2.5373-2.5373c0-45.672-38.066-81.194-81.207-81.194h-2.5377-2.5377-2.5377c-17.764 2.5373-35.528 10.149-48.217 22.836h-2.5377v2.5373h-2.5377s0 2.5373-2.5377 2.5373v2.5373c-32.99-2.5373-60.905-7.612-86.283-15.224"
      style="stroke-linejoin:round;stroke:#25221e;stroke-linecap:round;stroke-width:2;fill:none"
      inkscape:connector-curvature="0"
    />
    <path
      id="17"
      d="m47.688 702.17c0-7.612 2.5377-12.687 5.0755-17.761h43.141c5.0754 0 12.689-2.5373 7.6132 5.0746 0 5.0746-5.0754 7.612-10.151 10.149-2.5377 2.5373-7.6132 2.5373-10.151 2.5373h-35.528z"
      style="stroke-linejoin:round;fill-rule:evenodd;stroke:#25221e;stroke-linecap:round;stroke-width:2;fill:#ffffff"
      inkscape:connector-curvature="0"
    />
    <path
      id="18"
      d="m154.27 661.57h32.99c2.5377 0 2.5377 2.5373 2.5377 2.5373l-2.5377 5.0746s-2.5377 2.5373-5.0754 2.5373h-32.99v-2.5373-5.0746c2.5377 0 5.0754-2.5373 5.0754-2.5373z"
      style="stroke-linejoin:round;fill-rule:evenodd;stroke:#25221e;stroke-linecap:round;stroke-width:2;fill:#ffffff"
      inkscape:connector-curvature="0"
    />
    <path
      id="19"
      d="m47.688 704.71 15.226 5.0747c5.0755 2.5373 12.689 5.0747 12.689 12.687h-25.377c-2.5377 0-2.5377 0 0 0 17.764 0 25.377-5.0746 7.6132-10.149l-10.151-2.5373c-2.5377 0 0-2.5373 0-5.0747zm5.0755 38.06v-2.5373c5.0755 0 15.226-2.5373 7.6132-10.149h15.226c0 5.0747-7.6132 10.149-12.689 10.149z"
      style="fill-rule:evenodd;fill:#f38574"
      inkscape:connector-curvature="0"
    />
    <path
      id="20"
      d="m88.292 661.57c5.0755-2.5373 10.151-5.0746 15.226-7.612 17.764-7.612 27.915-22.836 50.755-32.985-2.5377 10.149-10.151 22.836-22.84 30.448-17.764 12.687-35.528 17.761-43.141 10.149z"
      style="fill-rule:evenodd;fill:#ffffff"
      inkscape:connector-curvature="0"
    />
    <path
      id="21"
      d="m106.06 760.53c22.84 5.0747 45.679 12.687 68.519 15.224-2.5377-5.0746-5.0754-12.687-5.0754-17.761v-2.5373c-12.689 2.5373-38.066 5.0746-63.443 5.0746z"
      style="fill-rule:evenodd;fill:#000000"
      inkscape:connector-curvature="0"
    />
    <path
      id="22"
      d="m659.28 598.14c17.764-2.5373 32.99-2.5373 48.217-7.612h27.915c73.594 5.0746 144.65 10.149 218.24 12.687 2.5377 2.5373 7.6132 5.0746 10.151 7.612-101.51-2.5373-203.02-5.0746-304.53-12.687z"
      style="fill-rule:evenodd;fill:#fab6ad"
      inkscape:connector-curvature="0"
    />
    <path
      id="23"
      d="m253.24 656.5c35.528 0 63.443 30.448 63.443 65.97 0 35.523-27.915 63.433-63.443 63.433s-65.981-27.911-65.981-63.433c0-35.523 30.453-65.97 65.981-65.97zm0-15.224c43.141 0 78.67 35.523 78.67 81.194 0 43.135-35.528 78.657-78.67 78.657-45.679 0-81.207-35.523-81.207-78.657 0-45.672 35.528-81.194 81.207-81.194z"
      style="fill-rule:evenodd;fill:#000000"
      inkscape:connector-curvature="0"
    />
    <path
      id="24"
      d="m253.24 661.57c32.99 0 58.368 25.373 58.368 60.896 0 32.985-25.377 60.896-58.368 60.896-35.528 0-60.905-27.911-60.905-60.896 0-35.523 25.377-60.896 60.905-60.896zm-43.141 32.985c22.84 10.149 32.99 5.0747 30.453-22.836-12.689 5.0747-25.377 12.687-30.453 22.836zm50.755-22.836c0 27.911 10.151 32.985 32.99 22.836-5.0754-10.149-17.764-20.299-32.99-22.836zm40.604 43.135c-22.84 7.612-30.453 17.761-12.689 40.597 7.6132-10.149 12.689-20.299 12.689-32.985v-7.612zm-27.915 53.284c-15.226-20.299-27.915-20.299-40.604 0 5.0754 2.5373 12.689 2.5373 20.302 2.5373 5.0755 0 12.689 0 20.302-2.5373zm-58.368-12.687c17.764-22.836 10.151-32.985-12.689-40.597v7.612c0 12.687 5.0755 22.836 12.689 32.985zm27.915-83.732 2.5377 22.836c0 12.687 12.689 12.687 12.689 0v-22.836h-5.0755-10.151zm53.292 27.911-22.84 7.612c-10.151 5.0746-5.0754 15.224 5.0754 12.687l22.84-7.612c0-5.0746-2.5377-10.149-5.0754-12.687zm-10.151 58.358c-5.0754-7.612-10.151-12.687-12.689-20.299-7.6132-10.149-17.764-2.5373-12.689 7.612 5.0754 7.612 10.151 12.687 15.226 20.299 2.5377-2.5373 7.6132-5.0747 10.151-7.612zm-58.368 7.612c5.0754-7.612 10.151-12.687 15.226-20.299 5.0754-10.149-5.0755-17.761-10.151-7.612-5.0754 7.612-10.151 12.687-15.226 20.299 2.5377 2.5373 7.6132 5.0747 10.151 7.612zm-25.377-53.284c7.6132 2.5373 15.226 5.0747 22.84 7.612 12.689 2.5373 15.226-7.612 5.0755-12.687-7.6132-2.5373-15.226-5.0747-22.84-7.612-2.5377 2.5373-2.5377 7.612-5.0755 12.687z"
      style="fill-rule:evenodd;fill:#000000"
      inkscape:connector-curvature="0"
    />
    <path
      id="25"
      d="m253.24 664.11c30.453 0 55.83 25.373 55.83 58.358 0 30.448-25.377 55.821-55.83 55.821h-10.151 5.0754c32.99 0 58.368-25.373 58.368-55.821 0-32.985-25.377-58.358-58.368-58.358h-5.0754 10.151z"
      style="fill-rule:evenodd;fill:#838181"
      inkscape:connector-curvature="0"
    />
    <path
      id="26"
      d="m796.32 656.5c35.528 0 63.443 30.448 63.443 65.97 0 35.523-27.915 63.433-63.443 63.433s-65.981-27.911-65.981-63.433c0-35.523 30.453-65.97 65.981-65.97zm0-15.224c43.141 0 78.67 35.523 78.67 81.194 0 43.135-35.528 78.657-78.67 78.657-45.679 0-81.207-35.523-81.207-78.657 0-45.672 35.528-81.194 81.207-81.194z"
      style="fill-rule:evenodd;fill:#000000"
      inkscape:connector-curvature="0"
    />
    <path
      id="27"
      d="m796.32 661.57c32.99 0 60.905 25.373 60.905 60.896 0 32.985-27.915 60.896-60.905 60.896s-60.905-27.911-60.905-60.896c0-35.523 27.915-60.896 60.905-60.896zm-43.141 32.985c22.84 10.149 32.99 5.0747 30.453-22.836-12.689 5.0747-22.84 12.687-30.453 22.836zm53.292-22.836c-2.5377 27.911 7.6132 32.985 32.99 22.836-7.6132-10.149-20.302-20.299-32.99-22.836zm38.066 43.135c-22.84 7.612-27.915 17.761-12.689 40.597 10.151-10.149 12.689-20.299 12.689-32.985v-7.612zm-27.915 53.284c-15.226-20.299-27.915-20.299-40.604 0 5.0755 2.5373 12.689 2.5373 20.302 2.5373 7.6132 0 12.689 0 20.302-2.5373zm-58.368-12.687c17.764-22.836 12.689-32.985-12.689-40.597v7.612c0 12.687 5.0755 22.836 12.689 32.985zm30.453-83.732v22.836c0 12.687 12.689 12.687 12.689 0v-22.836h-5.0755-7.6132zm50.755 27.911-22.84 7.612c-10.151 5.0746-5.0755 15.224 5.0754 12.687l22.84-7.612c0-5.0746-2.5378-10.149-5.0755-12.687zm-7.6132 58.358c-5.0755-7.612-10.151-12.687-15.226-20.299-7.6132-10.149-17.764-2.5373-10.151 7.612 2.5378 7.612 7.6132 12.687 12.689 20.299 5.0755-2.5373 7.6132-5.0747 12.689-7.612zm-58.368 7.612c2.5377-7.612 7.6132-12.687 12.689-20.299 5.0754-10.149-2.5378-17.761-10.151-7.612-5.0755 7.612-10.151 12.687-15.226 20.299 2.5377 2.5373 7.6132 5.0747 12.689 7.612zm-27.915-53.284c7.6132 2.5373 15.226 5.0747 22.84 7.612 12.689 2.5373 15.226-7.612 5.0755-12.687-7.6132-2.5373-15.226-5.0747-22.84-7.612-2.5378 2.5373-2.5378 7.612-5.0755 12.687z"
      style="fill-rule:evenodd;fill:#000000"
      inkscape:connector-curvature="0"
    />
    <path
      id="28"
      d="m796.32 664.11c30.453 0 55.83 25.373 55.83 58.358 0 30.448-25.377 55.821-55.83 55.821h-10.151 7.6132c30.453 0 55.83-25.373 55.83-55.821 0-32.985-25.377-58.358-55.83-58.358h-7.6132 10.151z"
      style="fill-rule:evenodd;fill:#838181"
      inkscape:connector-curvature="0"
    />
    <path
      id="10"
      d="m913.05 626.05c12.689 25.373 48.217 22.836 91.358 22.836-2.5377-2.5373-5.0755-7.612-10.151-12.687-7.6132-7.612-15.226-15.224-22.84-20.299-15.226 2.5373-35.528 5.0746-58.368 10.149z"
      style="stroke-linejoin:round;stroke:#25221e;stroke-linecap:round;stroke-width:2;fill:#ff2a2a"
      inkscape:connector-curvature="0"
    />
    <path
      id="11"
      d="m918.59 626.05c15.226 7.612 40.604 7.612 71.056 5.0746-7.6132-5.0746-12.689-10.149-20.302-15.224-12.689 2.5373-30.453 5.0746-50.755 10.149z"
      style="stroke-linejoin:round;fill-rule:evenodd;stroke:#25221e;stroke-linecap:round;stroke-width:2;fill:#ffffff"
      inkscape:connector-curvature="0"
    />
    <path
      id="29"
      d="m169.5 755.45c-27.915 5.0746-119.27 12.687-121.81-27.911v-12.687c-2.5377-32.985 7.6132-35.523 32.99-48.209 7.6132-5.0747 15.226-7.612 22.84-12.687 17.764-7.612 27.915-22.836 50.755-32.985s50.755-7.612 76.132-10.149c40.604-5.0746 81.207-7.612 121.81-15.224 27.915-15.224 58.368-30.448 86.283-48.209 17.764-10.149 43.141-27.911 63.443-27.911 5.0754-2.5373 5.0754 0 7.6132 10.149-2.5377 2.5373-7.6132 5.0746-12.689 7.612-12.689 7.612-25.377 17.761-38.066 25.373-22.84 12.687-45.679 25.373-63.443 38.06h2.5377c83.745 0 180.18-2.5373 261.39-2.5373 17.764-2.5373 32.99-2.5373 48.217-7.612 17.764-2.5373 35.528-7.612 50.755-17.761 25.377-15.224 63.443-2.5373 91.358-2.5373 55.83 12.687 104.05 22.836 144.65 65.97 15.226 17.761 17.764 17.761 15.226 43.135v27.911c0 7.612-2.5378 12.687-2.5378 17.761-5.0754 15.224-10.151 12.687-27.915 15.224-30.453 7.612-60.905 10.149-93.896 12.687h-2.5377v-30.448c0-48.209-38.066-88.806-86.283-88.806s-86.283 40.597-86.283 91.344c0 10.149-2.5377 20.299 0 30.448-116.74 2.5373-233.47 5.0746-350.21 10.149h-17.764c-5.0754 0-7.6132-2.5373-7.6132-2.5373 2.5377-12.687 0-25.373 0-40.597 0-76.12-83.745-106.57-134.5-65.97l-7.6132 7.612c0 2.5373-2.5377 2.5373-2.5377 5.0746-12.689 15.224-20.302 32.985-20.302 55.821v32.985-2.5373z"
      style="stroke-linejoin:round;stroke:#000000;stroke-linecap:round;stroke-width:3;fill:none"
      inkscape:connector-curvature="0"
    />
  </g>
  <metadata>
    <rdf:RDF>
      <cc:Work>
        <dc:format>image/svg+xml</dc:format>
        <dc:type
          rdf:resource="http://purl.org/dc/dcmitype/StillImage"
        />
        <cc:license
          rdf:resource="http://creativecommons.org/licenses/publicdomain/"
        />
        <dc:publisher>
          <cc:Agent
            rdf:about="http://openclipart.org/"
          >
            <dc:title>Openclipart</dc:title>
          </cc:Agent>
        </dc:publisher>
        <dc:title>draft form Porsche Carrera GT</dc:title>
        <dc:date>2010-11-01T10:09:41</dc:date>
        <dc:description>draft form Porsche Carrera GT, Photothailand</dc:description>
        <dc:source>
          https://openclipart.org/detail/93397/draft-form-porsche-carrera-gt-by-photothailand</dc:source>
        <dc:creator>
          <cc:Agent>
            <dc:title>photothailand</dc:title>
          </cc:Agent>
        </dc:creator>
        <dc:subject>
          <rdf:Bag>
            <rdf:li>Photothailand</rdf:li>
            <rdf:li>draft form Porsche Carrera GT</rdf:li>
          </rdf:Bag>
        </dc:subject>
      </cc:Work>
      <cc:License
        rdf:about="http://creativecommons.org/licenses/publicdomain/"
      >
        <cc:permits
          rdf:resource="http://creativecommons.org/ns#Reproduction"
        />
        <cc:permits
          rdf:resource="http://creativecommons.org/ns#Distribution"
        />
        <cc:permits
          rdf:resource="http://creativecommons.org/ns#DerivativeWorks"
        />
      </cc:License>
    </rdf:RDF>
  </metadata>
</svg>